<?xml version="1.0" encoding="iso-8859-1"?>
<!-- Uploaded to: SVG Repo, www.svgrepo.com, Generator: SVG Repo Mixer Tools -->
<svg fill="#000000" height="800px" width="800px" version="1.1" id="Layer_1" xmlns="http://www.w3.org/2000/svg" xmlns:xlink="http://www.w3.org/1999/xlink" 
	 viewBox="0 0 511.998 511.998" xml:space="preserve">
<g>
	<g>
		<circle cx="85.38" cy="124.966" r="33.482"/>
	</g>
</g>
<g>
	<g>
		<path d="M241.203,134.8c0.305,17.03,14.195,30.744,31.298,30.744c17.103,0,30.994-13.714,31.298-30.744
			C295.914,134.8,248.928,134.8,241.203,134.8z"/>
	</g>
</g>
<g>
	<g>
		<path d="M511.257,278.721c-7.527-20.628-19.236-52.908-26.484-73.644h0.001c-2.66-7.615-4.932-15.591-10.966-22.422
			c-5.166-5.848-11.635-8.821-19.374-8.821c-16.624,0-25.024,0-42.064,0c-11.267,0-19.152,6.314-24.411,16.174
			c-1.657,3.107-18.577,50.618-24.22,66.188c-10.511-15.947-38.064-57.748-49.073-74.45c-2.222-3.371-5.989-5.4-10.028-5.4
			c-6.301,0-36.503,0-50.517,0c-4.634,0-6.58-0.239-9.468,1.069l-44.703,20.238l-21.245-28.674
			c0.673-4.048-0.591-8.347-3.772-11.407c-5.127-4.934-13.284-4.777-18.218,0.35l-25.348,26.345l-25.569-6.114
			c-3.047-5.455-8.665-9.342-15.359-9.892l-34.485-2.835c-7.339-0.604-14.325,2.999-18.14,9.24
			c-11.836,14.114-21.955,26.177-33.223,39.612c-1.853,2.21-2.911,4.978-3.006,7.861L0.007,270.72
			c-0.236,7.253,5.571,13.304,12.886,13.304c6.922,0,12.644-5.496,12.87-12.466l1.434-44.131l23.778-28.35l-12.689,27.125
			L36.8,271.918c-0.203,6.257-2.81,11.909-6.908,16.047l6.395,41.695l-19.814,72.267c-2.258,8.236,2.588,16.742,10.824,19
			c8.217,2.258,16.739-2.576,19-10.823l20.685-75.445c0.575-2.094,0.7-4.286,0.371-6.432l-6.603-43.048l7.314,0.601l17.003,46.358
			l4.878,74.882c0.556,8.529,7.924,14.982,16.434,14.424c8.522-0.556,14.979-7.912,14.424-16.434l-5.023-77.108
			c-0.096-1.475-0.404-2.93-0.913-4.319l-14.484-39.49l6.508-79.181l25.649,6.133c4.5,1.074,9.152-0.348,12.281-3.598l18.354-19.076
			l23.244,31.371c3.372,4.552,9.459,6.123,14.602,3.792l39.376-17.826l0.006,200.922c0,7.959,6.453,14.411,14.412,14.411
			s14.412-6.453,14.412-14.411V291.437h6.222v115.191c0,7.959,6.453,14.411,14.412,14.411s14.412-6.453,14.412-14.411
			c0-197.736-0.262-74.504-0.262-197.398c6.361,9.649,45.789,69.469,51.933,78.788c3.453,4.375,6.343,7.014,11.002,7.014
			c4.952-0.001,9.134-1.514,11.403-7.976c6.03-17.173,18.058-49.713,24.127-66.935c-0.629,5.146,0.819-2.85-10.95,57.914
			l-6.294,32.494c-0.382,1.977,0.138,4.021,1.418,5.575c1.281,1.554,3.189,2.46,5.202,2.46c2.611,0,5.757,0,9.264,0v88.065
			c0,8.046,6.523,14.568,14.569,14.568c8.046,0,14.569-6.522,14.569-14.568v-88.065c2.094,0,4.195,0,6.291,0v88.065
			c0,8.046,6.523,14.568,14.569,14.568s14.569-6.522,14.569-14.568v-88.065c3.507,0,6.653,0,9.264,0c2.014,0,3.924-0.9,5.205-2.456
			c1.282-1.555,1.8-3.6,1.416-5.579c-18.651-96.294-16.592-85.074-17.244-90.406c9.723,27.524,23.958,66.471,24.127,66.933
			c2.301,6.295,9.271,9.539,15.571,7.233C510.321,291.989,513.559,285.017,511.257,278.721z"/>
	</g>
</g>
<g>
	<g>
		<path d="M324.897,115.809c-13.439,0-17.454,0-18.488,0c-0.228,0-0.313,0-0.32,0c-0.532,0-1.852,0-4.844,0
			c-3.991-10.21-13.105-17.845-24.185-19.748c0.014-0.157,0.047-0.308,0.047-0.468c0-2.804-2.273-5.077-5.077-5.077
			c-2.803,0-5.077,2.273-5.077,5.077c0,0.118,0.027,0.228,0.034,0.343c-15.338,2.255-27.113,15.466-27.113,31.431
			c0,0,82.798-0.431,85.023-0.431c3.072,0,5.564-2.492,5.564-5.564C330.461,118.3,327.969,115.809,324.897,115.809z"/>
	</g>
</g>
<g>
	<g>
		<path d="M501.377,164.122c-6.899-14.184-14.984-19.296-19.89-21.747c-2.885-1.441-6.133-2.008-9.247-0.809
			c-0.665,0.257-1.323,0.595-1.971,1.023l0.504-1.183c0.805-1.889-0.074-4.071-1.963-4.875c-1.617-0.691-3.446-0.137-4.444,1.222
			c0.129-1.156,0.202-2.329,0.202-3.519c0-17.293-14.02-31.313-31.313-31.313c-17.293,0-31.313,14.02-31.313,31.313
			c0,1.191,0.072,2.363,0.202,3.519c-0.998-1.358-2.826-1.909-4.443-1.222c-1.889,0.805-2.768,2.987-1.963,4.875l0.504,1.183
			c-0.648-0.427-1.306-0.766-1.972-1.023c-3.115-1.198-6.363-0.633-9.247,0.809c-4.906,2.451-12.991,7.565-19.89,21.747
			c-0.345,0.708-0.232,1.553,0.286,2.145c0.519,0.592,1.341,0.818,2.089,0.574c12.202-4.003,24.554-0.457,29.367-2.861
			c2.372-1.185,4.123-3.118,5.112-5.37c0.197-0.449,0.353-0.913,0.489-1.384l0.541,1.272c0.602,1.414,1.976,2.261,3.422,2.261
			c0.486,0,0.979-0.096,1.455-0.298c1.889-0.805,2.768-2.987,1.963-4.875l-0.464-1.088c5.744,6.756,14.3,11.048,23.862,11.048
			c9.563,0,18.119-4.292,23.863-11.048l-0.464,1.088c-0.805,1.889,0.074,4.071,1.963,4.875c0.476,0.202,0.969,0.298,1.455,0.298
			c1.445,0,2.819-0.848,3.422-2.261l0.541-1.272c0.136,0.471,0.292,0.935,0.489,1.384c0.989,2.252,2.74,4.185,5.112,5.37
			c4.813,2.404,17.167-1.142,29.367,2.861c0.748,0.246,1.57,0.019,2.088-0.574C501.609,165.675,501.721,164.829,501.377,164.122z"/>
	</g>
</g>
</svg>